<svg xmlns="http://www.w3.org/2000/svg" viewBox="0 0 11.77 16.86"><defs><style>.cls-1,.cls-2{fill:none;stroke:#a7a9ac;stroke-miterlimit:10;}.cls-1{stroke-width:0.5px;}.cls-2{stroke-width:0.25px;}</style></defs><g id="Layer_2" data-name="Layer 2"><g id="Layer_1-2" data-name="Layer 1"><path class="cls-1" d="M11,6.28a1.94,1.94,0,0,0-.67.77,2.07,2.07,0,0,0,.09,1.06c.08.31.18.67.07.82s-.49.18-.82.2l-.23,0-.21,0h0L9,9.2H9l-.16,0,0,0a.46.46,0,0,0-.15.09,1.89,1.89,0,0,0-.54.89c-.12.31-.25.66-.44.72H7.45l-.06,0h0l-.06,0,0,0-.06,0,0,0-.07,0,0,0-.08,0H7l-.09-.06a3.88,3.88,0,0,0-.52-.3h0a1.29,1.29,0,0,0-.46-.11,2,2,0,0,0-1,.41c-.24.16-.59.37-.76.32s-.32-.41-.44-.72a1.88,1.88,0,0,0-.53-.89,1.88,1.88,0,0,0-1-.24c-.34,0-.71,0-.82-.2s0-.51.06-.83a1.92,1.92,0,0,0,.09-1,1.87,1.87,0,0,0-.67-.77C.55,6.07.25,5.83.25,5.62S.55,5.17.81,5a1.94,1.94,0,0,0,.67-.77,1.92,1.92,0,0,0-.09-1.05c-.08-.32-.18-.68-.06-.83s.48-.18.82-.2a1.88,1.88,0,0,0,1-.24A1.88,1.88,0,0,0,3.7,1C3.82.67,4,.32,4.14.26s.52.16.76.32a2,2,0,0,0,1,.41,2,2,0,0,0,1-.41c.24-.16.6-.37.76-.32S8,.67,8.07,1a1.89,1.89,0,0,0,.54.89,1.86,1.86,0,0,0,1,.24c.33,0,.7,0,.82.2s0,.51-.07.83a2,2,0,0,0-.09,1.05A1.89,1.89,0,0,0,11,5c.26.22.55.46.55.66S11.23,6.06,11,6.28Z"/><path class="cls-1" d="M9.16,10.13A3.59,3.59,0,0,0,9,10.6a1.86,1.86,0,0,1-1,1.28,1,1,0,0,1-.36.06,1.79,1.79,0,0,1-.9-.3l1.11,4.62L9,14.49l1.92,1L9.62,10.08A2,2,0,0,0,9.16,10.13Z"/><path class="cls-1" d="M4.21,11.94a1.13,1.13,0,0,1-.36-.06,1.88,1.88,0,0,1-1-1.28,2.62,2.62,0,0,0-.21-.47l-.17,0L1.13,15.5l1.92-1,1.24,1.77,1.17-4.83,0,0A2.35,2.35,0,0,1,4.21,11.94Z"/><path class="cls-2" d="M5.89,2.11A3.51,3.51,0,1,0,9.4,5.62,3.51,3.51,0,0,0,5.89,2.11Z"/></g></g></svg>