<svg xmlns="http://www.w3.org/2000/svg" viewBox="0 0 14.97 16.33"><defs><style>.cls-1{fill:#a7a9ac;}</style></defs><g id="Layer_2" data-name="Layer 2"><g id="Layer_1-2" data-name="Layer 1"><path class="cls-1" d="M7.49,13.71A5.53,5.53,0,1,1,13,8.18,5.54,5.54,0,0,1,7.49,13.71Zm0-10.55a5,5,0,1,0,5,5A5,5,0,0,0,7.49,3.16Z"/><path class="cls-1" d="M7.49,13.71a.25.25,0,0,1-.25-.25V2.91a.25.25,0,1,1,.49,0V13.46A.25.25,0,0,1,7.49,13.71Z"/><path class="cls-1" d="M12.76,8.43H2.21a.25.25,0,1,1,0-.49H12.76a.25.25,0,1,1,0,.49Z"/><path class="cls-1" d="M6,13.39a.24.24,0,0,1-.21-.12A10,10,0,0,1,4.5,9.41a10.36,10.36,0,0,1,.14-3.28A10.21,10.21,0,0,1,5.78,3a.25.25,0,0,1,.34-.08.24.24,0,0,1,.08.34,9.93,9.93,0,0,0-1.08,3A9.89,9.89,0,0,0,5,9.36,9.66,9.66,0,0,0,6.21,13a.26.26,0,0,1-.09.34A.31.31,0,0,1,6,13.39Z"/><path class="cls-1" d="M7.57,6A10.25,10.25,0,0,1,5.89,5.9a9.1,9.1,0,0,1-2.54-.78.24.24,0,0,1-.1-.33.25.25,0,0,1,.33-.11h0A8.94,8.94,0,0,0,6,5.41a9.09,9.09,0,0,0,5.47-.73.25.25,0,0,1,.21.45A9.45,9.45,0,0,1,7.57,6Z"/><path class="cls-1" d="M3.47,11.75a.27.27,0,0,1-.23-.14.26.26,0,0,1,.12-.33,9.72,9.72,0,0,1,5.78-.78,9.52,9.52,0,0,1,2.54.78.25.25,0,1,1-.23.44A9.1,9.1,0,0,0,9,11a9.2,9.2,0,0,0-5.47.74Z"/><path class="cls-1" d="M9,13.31a.27.27,0,0,1-.12,0,.25.25,0,0,1-.09-.34A9.55,9.55,0,0,0,10,9.35a9.23,9.23,0,0,0-.13-3A9.41,9.41,0,0,0,8.82,3.38a.25.25,0,0,1,.42-.27,10.13,10.13,0,0,1,1.15,3.07,10.23,10.23,0,0,1,.14,3.21,10,10,0,0,1-1.28,3.8A.25.25,0,0,1,9,13.31Z"/><path class="cls-1" d="M5.34,15.35H5.27A7.48,7.48,0,0,1,0,7.54.25.25,0,0,1,.3,7.32a.25.25,0,0,1,.22.27,7,7,0,0,0,2,5.54,7.07,7.07,0,0,0,2.87,1.73.25.25,0,0,1-.07.49Z"/><path class="cls-1" d="M7.49,15.67a6.28,6.28,0,0,1-.75,0,.23.23,0,0,1-.22-.27.25.25,0,0,1,.27-.22,7,7,0,0,0,7.47-5.22.25.25,0,1,1,.48.12,7.48,7.48,0,0,1-7.25,5.63Z"/><path class="cls-1" d="M14.71,9h0a.25.25,0,0,1-.23-.27A7,7,0,0,0,9.28,1.43a.25.25,0,0,1-.18-.31A.24.24,0,0,1,9.4,1a7.38,7.38,0,0,1,3.38,1.94A7.48,7.48,0,0,1,15,8.74.25.25,0,0,1,14.71,9Z"/><path class="cls-1" d="M.45,6.75H.39a.25.25,0,0,1-.19-.3A7.5,7.5,0,0,1,7.93.71.25.25,0,0,1,8.16,1a.25.25,0,0,1-.26.24A7,7,0,0,0,.69,6.56.26.26,0,0,1,.45,6.75Z"/><path class="cls-1" d="M7.33,1.89a.25.25,0,0,1-.18-.42L7.67,1,7.15.42a.24.24,0,0,1,0-.35.26.26,0,0,1,.35,0l.7.7A.24.24,0,0,1,8.27,1a.22.22,0,0,1-.07.17l-.7.7A.23.23,0,0,1,7.33,1.89Z"/><path class="cls-1" d="M7.39,16.33a.23.23,0,0,1-.17-.07l-.7-.7a.22.22,0,0,1-.07-.17.24.24,0,0,1,.07-.18l.7-.7a.26.26,0,0,1,.35,0,.24.24,0,0,1,0,.35l-.52.53.52.52a.25.25,0,0,1-.18.42Z"/></g></g></svg>