<svg xmlns="http://www.w3.org/2000/svg" viewBox="0 0 15.55 15.59"><defs><style>.cls-1,.cls-2{fill:#a7a9ac;}.cls-2{fill-rule:evenodd;}</style></defs><g id="Layer_2" data-name="Layer 2"><g id="Layer_1-2" data-name="Layer 1"><path class="cls-1" d="M0,15.59l1.12-4.17a7.59,7.59,0,0,1-1-3.72,7.74,7.74,0,1,1,4,6.76ZM4.4,12.9l.26.16a6.28,6.28,0,1,0-2.14-2.13l.16.27-.62,2.33Z"/><path class="cls-2" d="M10.71,8.77a1.29,1.29,0,0,0-1.1-.25c-.29.12-.47.57-.65.79a.28.28,0,0,1-.36.08A5,5,0,0,1,6.11,7.26a.31.31,0,0,1,0-.42A1.67,1.67,0,0,0,6.6,6.1a1.59,1.59,0,0,0-.2-.87,2.07,2.07,0,0,0-.64-1,.88.88,0,0,0-1,.14A1.92,1.92,0,0,0,4.13,6a2,2,0,0,0,.06.48,3.85,3.85,0,0,0,.47,1.08,7.84,7.84,0,0,0,.48.74,7.51,7.51,0,0,0,2.12,2,6.14,6.14,0,0,0,1.32.63,2.92,2.92,0,0,0,1.54.24,1.87,1.87,0,0,0,1.4-1,.89.89,0,0,0,.06-.53C11.5,9.16,11,9,10.71,8.77Z"/></g></g></svg>