<svg xmlns="http://www.w3.org/2000/svg" viewBox="0 0 17.17 17.86"><defs><style>.cls-1{fill:#f1f2f2;}.cls-2{fill:#616e7d;}.cls-3{fill:#a7a9ac;}.cls-4{fill:none;stroke:#a7a9ac;stroke-miterlimit:10;stroke-width:0.5px;}.cls-5{fill:#fff;}</style></defs><g id="Layer_2" data-name="Layer 2"><g id="Layer_1-2" data-name="Layer 1"><path class="cls-1" d="M12.32,16.51a1.54,1.54,0,0,0,.35-1.66,3.12,3.12,0,0,0-.56-1c0-.07-.11-.13-.16-.19a2.44,2.44,0,0,0-1.68-.82,1.18,1.18,0,0,0-.76.25l-.1.08a4.33,4.33,0,0,1,2.45,2v0a2,2,0,0,1,.28,1.46Z"/><polygon class="cls-2" points="11.29 17.13 11.29 17.13 11.29 17.13 11.29 17.13"/><polygon class="cls-3" points="13.18 7.5 13.18 5.35 13.17 5.35 11.65 7.5 13.18 7.5"/><path class="cls-1" d="M4.66,7.09a1.91,1.91,0,0,0-.07-2.51l-.15-.2a2.73,2.73,0,0,0-1.5-1,2,2,0,0,0-.34,0A1.21,1.21,0,0,0,2,3.53a1.79,1.79,0,0,1,.69.32,5.21,5.21,0,0,1,1.18,1.3,3.8,3.8,0,0,1,.7,2Z"/><path class="cls-4" d="M11.49,17.19l.1-.09h0l.12-.09.09-.08a1.64,1.64,0,0,0-.15-1.69,4,4,0,0,0-2.36-1.91.39.39,0,0,0-.23.07l-.2.16-.12.1-.14.12a.69.69,0,0,1-.4.15.33.33,0,0,1-.27-.11l-.34-.42A13.54,13.54,0,0,0,6,11,13.72,13.72,0,0,0,3.9,8.87l-.33-.42c-.14-.16-.06-.45.18-.64l0,0,.1-.08.18-.15.18-.14,0,0C4.61,6.62,3.55,4.78,2.55,4a1.36,1.36,0,0,0-.74-.31H1.66l-.17.14-.07.06-.21.17,0,0-.11.1L1,4.29l-.16.12h0C-.53,5.85.55,9.65,3.35,13.09c2.27,2.79,5,4.52,6.83,4.52a2.14,2.14,0,0,0,1.15-.3h0l0,0h0Z"/><polygon class="cls-5" points="11.29 17.12 11.29 17.13 11.29 17.13 11.29 17.12"/><path class="cls-5" d="M8.38,6.5a3.29,3.29,0,0,1-.28.38,5.75,5.75,0,0,1-.49.46l-1,.87-.15.14a.38.38,0,0,0-.09.13.33.33,0,0,0,0,.15,1.21,1.21,0,0,0,0,.2.62.62,0,0,0,0,.21.21.21,0,0,0,.18.18H10l.08,0a.09.09,0,0,0,.06-.07.21.21,0,0,0,0-.12.9.9,0,0,0,0-.18.88.88,0,0,0,0-.17.34.34,0,0,0,0-.12l-.06-.07-.08,0H7.71l.67-.56a8.32,8.32,0,0,0,.82-.72,3.7,3.7,0,0,0,.48-.56,1.68,1.68,0,0,0,.22-.48,1.61,1.61,0,0,0,0-.44,1.06,1.06,0,0,0-.44-.88A1.62,1.62,0,0,0,9,4.56a3,3,0,0,0-.78-.09,3.24,3.24,0,0,0-.55,0,4.32,4.32,0,0,0-.48.11,3.07,3.07,0,0,0-.37.13,1,1,0,0,0-.21.11l-.07.07a.2.2,0,0,0,0,.08.24.24,0,0,0,0,.09s0,.09,0,.14,0,.15,0,.21,0,.1,0,.14l0,.07.07,0a.35.35,0,0,0,.16-.06L7,5.5l.35-.12a1.7,1.7,0,0,1,.47,0,1,1,0,0,1,.32,0,.52.52,0,0,1,.23.13.49.49,0,0,1,.14.18.59.59,0,0,1,.05.23.84.84,0,0,1,0,.27A1,1,0,0,1,8.38,6.5Z"/><path class="cls-5" d="M13.2,9.17l.09.05.17,0H14l.17,0,.1-.05,0-.06V8.26h.52a.14.14,0,0,0,.12-.09A.56.56,0,0,0,15,7.89a.71.71,0,0,0-.05-.3.15.15,0,0,0-.12-.09H14.3V4.69a.08.08,0,0,0,0-.07.38.38,0,0,0-.14,0l-.26,0h-.74l-.24,0-.15,0a.28.28,0,0,0-.08.06L10.86,7.22a.56.56,0,0,0-.07.13.69.69,0,0,0,0,.13.78.78,0,0,0,0,.16,1.15,1.15,0,0,0,0,.2,1.18,1.18,0,0,0,0,.22.22.22,0,0,0,0,.13.16.16,0,0,0,.08.06h2.32v.85ZM11.65,7.5l1.52-2.15h0V7.5Z"/><path class="cls-3" d="M4.79,7.26l-.45.37,0,0-.08.07L4,7.87,3.93,8,3.88,8c-.15.13-.19.29-.14.34l.32.39a14,14,0,0,1,2.06,2.12,13.91,13.91,0,0,1,1.66,2.45l.32.4a.14.14,0,0,0,.1,0,.47.47,0,0,0,.26-.1l.14-.12.12-.09.2-.17L9,13.18l.37-.3a1.38,1.38,0,0,1,.9-.3,2.64,2.64,0,0,1,1.83.89l.18.2a3.42,3.42,0,0,1,.59,1.09A7.79,7.79,0,1,0,3.08,3.21a3,3,0,0,1,1.53,1,1.77,1.77,0,0,1,.16.22A2.1,2.1,0,0,1,4.79,7.26Zm5.93.38a.78.78,0,0,1,0-.16.69.69,0,0,1,0-.13.56.56,0,0,1,.07-.13l1.79-2.56a.28.28,0,0,1,.08-.06l.15,0,.24,0h.74l.26,0a.38.38,0,0,1,.14,0,.08.08,0,0,1,0,.07V7.5h.52a.15.15,0,0,1,.12.09.71.71,0,0,1,.05.3.56.56,0,0,1-.05.28.14.14,0,0,1-.12.09H14.3v.85l0,.06-.1.05-.17,0h-.55l-.17,0-.09-.05,0-.06V8.26H10.86a.16.16,0,0,1-.08-.06.22.22,0,0,1,0-.13,1.18,1.18,0,0,1,0-.22A1.15,1.15,0,0,1,10.72,7.64Zm-4.39,1a.33.33,0,0,1,0-.15.38.38,0,0,1,.09-.13l.15-.14,1-.87a5.75,5.75,0,0,0,.49-.46,3.29,3.29,0,0,0,.28-.38,1,1,0,0,0,.14-.32.84.84,0,0,0,0-.27.59.59,0,0,0-.05-.23.49.49,0,0,0-.14-.18.52.52,0,0,0-.23-.13,1,1,0,0,0-.32,0,1.7,1.7,0,0,0-.47,0L7,5.5l-.26.12a.35.35,0,0,1-.16.06l-.07,0,0-.07s0-.08,0-.14,0-.12,0-.21,0-.1,0-.14a.24.24,0,0,1,0-.09.2.2,0,0,1,0-.08l.07-.07a1,1,0,0,1,.21-.11,3.07,3.07,0,0,1,.37-.13,4.32,4.32,0,0,1,.48-.11,3.24,3.24,0,0,1,.55,0A3,3,0,0,1,9,4.56a1.62,1.62,0,0,1,.56.26A1.06,1.06,0,0,1,10,5.7a1.61,1.61,0,0,1,0,.44,1.68,1.68,0,0,1-.22.48,3.7,3.7,0,0,1-.48.56,8.32,8.32,0,0,1-.82.72l-.67.56H10l.08,0,.06.07a.34.34,0,0,1,0,.12.88.88,0,0,1,0,.17.9.9,0,0,1,0,.18.21.21,0,0,1,0,.12.09.09,0,0,1-.06.07l-.08,0H6.52A.21.21,0,0,1,6.34,9a.62.62,0,0,1,0-.21A1.21,1.21,0,0,1,6.33,8.63Z"/></g></g></svg>