<svg xmlns="http://www.w3.org/2000/svg" viewBox="0 0 18.49 20.32"><defs><style>.cls-1{fill:none;stroke:#a7a9ac;stroke-miterlimit:10;}</style></defs><g id="Layer_2" data-name="Layer 2"><g id="Layer_1-2" data-name="Layer 1"><path class="cls-1" d="M10,19.82H8.49a2.24,2.24,0,0,1-2.25-2.24h6A2.24,2.24,0,0,1,10,19.82Z"/><path class="cls-1" d="M16.91,15.06l-.12,0a1.85,1.85,0,0,1-1.56-1.76V7.78A5.55,5.55,0,0,0,10,2.53V1.23a.73.73,0,0,0-1.46,0v1.3A5.55,5.55,0,0,0,3.27,7.78V13.4a1.88,1.88,0,0,1-1.64,1.78A1.31,1.31,0,0,0,.5,16.42v.63H18v-.76A1.29,1.29,0,0,0,16.91,15.06Z"/></g></g></svg>